<?xml version="1.0" encoding="UTF-8" standalone="no"?>
<svg
   xmlns:dc="http://purl.org/dc/elements/1.1/"
   xmlns:cc="http://creativecommons.org/ns#"
   xmlns:rdf="http://www.w3.org/1999/02/22-rdf-syntax-ns#"
   xmlns:svg="http://www.w3.org/2000/svg"
   xmlns="http://www.w3.org/2000/svg"
   xmlns:sodipodi="http://sodipodi.sourceforge.net/DTD/sodipodi-0.dtd"
   xmlns:inkscape="http://www.inkscape.org/namespaces/inkscape"
   version="1.1"
   id="svg62"
   width="618.46997"
   height="259.03955"
   viewBox="0 0 618.46997 259.03955"
   sodipodi:docname="Test.svg"
   inkscape:version="1.0.2 (e86c870879, 2021-01-15)">
  <metadata
     id="metadata68">
    <rdf:RDF>
      <cc:Work
         rdf:about="">
        <dc:format>image/svg+xml</dc:format>
        <dc:type
           rdf:resource="http://purl.org/dc/dcmitype/StillImage" />
        <dc:title></dc:title>
      </cc:Work>
    </rdf:RDF>
  </metadata>
  <defs
     id="defs66" />
  <sodipodi:namedview
     pagecolor="#ffffff"
     bordercolor="#666666"
     borderopacity="1"
     objecttolerance="10"
     gridtolerance="10"
     guidetolerance="10"
     inkscape:pageopacity="0"
     inkscape:pageshadow="2"
     inkscape:window-width="1920"
     inkscape:window-height="1016"
     id="namedview64"
     showgrid="false"
     inkscape:zoom="0.515625"
     inkscape:cx="522.61352"
     inkscape:cy="276.98695"
     inkscape:window-x="0"
     inkscape:window-y="27"
     inkscape:window-maximized="1"
     inkscape:current-layer="g70"
     fit-margin-top="0"
     fit-margin-left="0"
     fit-margin-right="0"
     fit-margin-bottom="0" />
  <g
     inkscape:groupmode="layer"
     inkscape:label="Image"
     id="g70"
     transform="translate(-77.386476,-523.01305)">
    <path
       style="fill:#000000;stroke-width:0.492503"
       d="m 695.05313,744.96314 c -2.21857,8.80039 -10.4018,20.28658 -18.53477,26.01661 -8.84054,6.22881 -23.828,11.11173 -33.98504,11.0726 -15.88491,-0.0603 -24.64314,-8.78837 -23.70209,-23.62182 0.7164,-11.30197 7.31862,-24.07281 16.09048,-31.12661 6.35477,-5.11002 13.33797,-8.85189 20.15752,-10.80252 4.44632,-1.27171 7.57211,-1.19598 10.06646,0.24415 1.48715,0.85801 3.1093,1.24442 6.1996,1.47599 10.24622,0.76764 20.33649,6.10831 23.39734,12.38272 1.34865,2.76526 1.4973,9.65259 0.3105,14.35888 z m -1.9152,-13.37373 c -1.45943,-2.88583 -2.6508,-4.15398 -5.92072,-6.30815 -3.87135,-2.5481 -7.36796,-3.92002 -13.44263,-5.27302 -6.11927,-1.36311 -6.05818,-1.37339 -5.14668,0.80628 0.8425,2.01121 1.00386,5.60356 0.25484,5.60356 -0.27166,0 -0.49286,-0.51476 -0.49286,-1.14353 0,-0.62892 -0.35151,-2.18148 -0.78633,-3.44998 -0.5706,-1.67516 -1.10552,-2.3865 -1.95272,-2.59945 -0.64192,-0.16136 -1.11988,-0.52987 -1.06096,-0.81927 0.2065,-1.02095 -3.58936,-1.5153 -6.92269,-0.90127 -3.2694,0.6025 -9.15819,2.71099 -10.45468,3.7431 -0.40619,0.32351 -1.13218,0.72713 -1.61015,0.89758 -3.25737,1.15636 -12.3806,8.66538 -15.50327,12.76093 -4.57479,5.99929 -8.66989,15.94403 -9.30068,22.58703 -0.5558,5.85231 1.3434,12.88138 4.48574,16.59991 1.55779,1.84402 6.19989,4.35672 9.86155,5.3366 3.25603,0.87253 10.91181,0.84768 15.51333,-0.0545 4.66617,-0.90815 12.59768,-3.39631 16.19915,-5.08408 10.7094,-5.01478 21.11417,-15.12601 24.48349,-23.7886 0.46428,-1.19554 1.00545,-2.3954 1.20363,-2.66614 0.19734,-0.27098 0.60465,-1.71152 0.90269,-3.20133 0.29782,-1.48982 0.63825,-3.15205 0.75453,-3.69377 0.38682,-1.78857 -0.30431,-7.85323 -1.06458,-9.35754 z m -25.65417,8.32418 c -0.25738,0.1587 -2.87265,0.0952 -5.81381,-0.14093 -2.94155,-0.23624 -6.45814,-0.3225 -7.81617,-0.1917 -2.17463,0.20917 -2.63014,0.46074 -3.81052,2.10185 -1.52067,2.11746 -1.52024,2.11831 2.36817,4.13392 4.49686,2.329 7.43226,6.46306 6.8082,9.58261 -0.40889,2.04628 -3.10757,4.49547 -5.55993,5.04638 -2.06306,0.46303 -4.47807,0.17381 -4.47807,-0.5369 0,-0.21255 -0.55352,-0.52523 -1.23117,-0.69532 -0.74661,-0.18751 -1.2311,-0.66042 -1.2311,-1.20302 0,-1.39323 0.58633,-1.6385 1.3386,-0.56101 0.48899,0.70026 1.24833,0.98106 2.64494,0.98106 4.82258,0 7.22129,-2.80586 5.40327,-6.32069 -1.09677,-2.11907 -2.04254,-2.95852 -4.71437,-4.18197 -5.19089,-2.37686 -6.25341,-4.06284 -3.93248,-6.24236 1.32453,-1.24505 1.58164,-2.26323 0.64901,-2.57405 -0.34244,-0.1144 -0.44009,-0.55928 -0.23683,-1.08866 0.31758,-0.83097 0.93416,-0.87621 8.58381,-0.63047 4.53251,0.14561 8.8914,0.463 9.68563,0.7053 1.50696,0.45912 2.14347,1.32068 1.34282,1.81596 z m -51.17798,9.3842 c -1.01681,0.67283 -3.2884,1.8087 -5.04786,2.52327 -1.75981,0.7149 -4.30711,1.90946 -5.66162,2.65432 -1.35485,0.74542 -2.74019,1.25651 -3.07828,1.13678 -1.47955,-0.52446 -0.32208,-1.65161 3.69407,-3.59701 7.0158,-3.399 8.70938,-4.324 8.88642,-4.85439 0.0923,-0.27649 -1.12167,-1.18617 -2.69744,-2.02157 -6.41974,-3.4038 -9.88621,-5.87408 -9.00575,-6.41792 0.42478,-0.26295 0.29135,-0.47551 -0.44326,-0.70872 -0.57734,-0.18328 -1.04988,-0.65085 -1.04988,-1.039 0,-0.94235 0.46742,-0.88898 1.69179,0.19335 1.15812,1.02366 7.5443,4.95736 10.12844,6.23878 2.10305,1.04332 4.43233,3.1601 4.43233,4.0289 0,0.35188 -0.83151,1.19018 -1.84896,1.86321 z m -17.29099,-1.99032 c -0.76113,0.47048 -7.99021,-0.75892 -10.32814,-1.7564 -1.24918,-0.53301 -2.04418,-1.16579 -1.91709,-1.52617 0.11949,-0.33863 0.52577,-0.57355 0.90296,-0.5223 1.57478,0.21411 9.15001,1.71307 10.24923,2.02814 1.28753,0.36879 1.86129,1.30174 1.09304,1.77673 z m -20.62974,-1.69108 c -1.40506,-0.0122 -8.97109,-1.8854 -13.05131,-3.23565 -2.50793,-0.83015 -3.09076,-1.68015 -1.15176,-1.68015 1.63193,0 11.13285,2.27661 13.56895,3.25144 2.29924,0.91995 2.58802,1.67782 0.63412,1.66436 z m -24.96687,-2.94584 c -3.00484,0 -18.06895,-2.58078 -20.83588,-3.56961 -2.7014,-0.96564 -3.95909,-1.84746 -2.63455,-1.84746 2.64481,0 19.77792,3.05369 23.81227,4.24416 1.27678,0.37683 1.04476,1.17291 -0.34184,1.17291 z m -37.47293,-9.87763 c -1.88797,6.72662 -10.19523,13.21008 -21.40871,16.70818 -3.78622,1.18101 -14.26831,3.32621 -18.5025,3.78662 -7.16366,0.77865 -14.66888,-2.7334 -17.42522,-8.1545 -4.66455,-9.17478 -0.75434,-24.6954 8.83912,-35.0845 2.86658,-3.10382 4.26565,-4.17486 7.54686,-5.77589 2.68854,-1.31189 4.92861,-2.04136 6.73671,-2.19385 1.48978,-0.12577 4.37094,-0.69659 6.40252,-1.26924 4.79976,-1.35242 8.79862,-1.0198 13.29757,1.10652 9.66601,4.56842 17.32443,20.86074 14.51365,30.87666 z m -1.97034,-11.11686 c -0.17241,-2.44175 -0.84535,-3.80114 -4.73059,-9.56143 -2.89039,-4.28497 -5.76953,-7.259 -8.32412,-8.59853 -1.84351,-0.96662 -6.55985,-1.74249 -6.93186,-1.14027 -0.19597,0.31679 -0.66349,0.26896 -1.30854,-0.13391 -0.80951,-0.50559 -1.53834,-0.50718 -3.76701,-0.0109 l -2.7633,0.61839 1.06647,1.49826 1.06717,1.49811 -1.92149,-1.09045 c -1.59503,-0.9053 -2.15309,-1.00008 -3.28459,-0.55903 -0.74977,0.29237 -1.61572,1.14537 -1.92437,1.89477 -0.42828,1.04029 -0.60869,1.16518 -0.7611,0.52721 -0.10992,-0.45987 0.044,-1.29098 0.3411,-1.84687 0.46451,-0.86786 0.39707,-1.01087 -0.47727,-1.01087 -1.58661,0 -4.13317,1.22231 -6.98968,3.35509 -6.14346,4.58666 -10.78398,11.63496 -13.23276,20.09785 -1.09678,3.79103 -1.34753,11.18879 -0.48758,14.38272 1.80976,6.72085 8.98267,10.57403 17.65712,9.48542 5.09386,-0.63927 14.49795,-2.70017 18.37136,-4.02616 6.44458,-2.20599 13.51146,-6.31038 14.70496,-8.54009 0.37227,-0.69555 0.85619,-1.26461 1.07607,-1.26461 0.505,0 2.42749,-3.71082 2.93431,-5.66382 0.21088,-0.81272 0.25879,-2.918 0.10656,-4.67877 -0.15296,-1.76076 -0.3417,-4.11631 -0.42086,-5.23453 z m -17.07281,7.59688 c -0.32596,0.3259 -1.3293,0.59266 -2.22999,0.59266 -2.084,0 -2.67352,1.33425 -2.77258,6.27751 -0.0615,3.06171 -0.19587,3.56897 -0.94583,3.57063 -1.68143,0.007 -2.32607,-4.78077 -1.07859,-8.00117 0.45107,-1.16341 -0.73745,-1.1289 -5.7343,0.16627 -4.88076,1.26518 -6.3493,1.02141 -6.3493,-1.05395 0,-0.81664 0.54639,-2.56305 1.21419,-3.88094 1.97043,-3.88822 3.21777,-7.54422 3.21802,-9.43196 2.9e-4,-2.06755 0.39215,-2.62566 1.3093,-1.86438 0.90129,0.74797 0.83071,2.15784 -0.15766,3.14614 -0.58975,0.58976 -0.65831,0.91779 -0.24511,1.17314 0.70454,0.43529 -0.35544,4.31652 -2.13457,7.81646 -0.67466,1.32767 -0.96854,2.40376 -0.68361,2.50365 0.27506,0.096 1.98115,-0.18459 3.79155,-0.62422 1.81044,-0.43957 4.04908,-0.97101 4.97489,-1.18085 0.92574,-0.20999 1.86764,-0.76028 2.0932,-1.22278 0.22535,-0.46288 0.6379,-1.22892 0.91657,-1.7029 0.27879,-0.47406 0.63702,-1.24983 0.79633,-1.72349 0.18497,-0.55131 0.79492,-0.8622 1.69081,-0.8622 1.23483,0 1.46465,0.24782 1.94155,2.09322 0.29741,1.15111 0.63908,2.4359 0.75917,2.85488 0.12007,0.41914 -0.0489,1.02862 -0.37404,1.35428 z m -1.87403,-4.57946 c -0.27127,-0.16747 -0.7146,0.27712 -0.98491,0.98821 -0.64986,1.7092 -0.64633,1.7214 0.49338,1.7214 0.71607,0 0.98502,-0.32834 0.98502,-1.2022 0,-0.66125 -0.22203,-1.3394 -0.49349,-1.50741 z m 5.54169,-88.59852 c -1.87006,0.57775 -2.34441,1.09885 -2.46435,2.70735 -0.30695,4.11391 -0.70325,5.86048 -1.33005,5.86048 -0.9217,0 -1.2538,-1.13356 -1.2538,-4.27942 0,-2.10403 -0.15331,-2.66228 -0.67591,-2.46162 -2.15618,0.82734 -7.80418,2.25326 -9.9455,2.51063 -2.22243,0.26746 -2.62006,0.16721 -3.63813,-0.91641 -1.47931,-1.57471 -1.21573,-3.86976 0.97418,-8.48715 0.87656,-1.84661 1.78105,-3.91156 2.01084,-4.58871 2.38978,-7.0519 2.84613,-8.12618 3.45192,-8.12618 1.40056,0 0.95732,2.76029 -1.32268,8.23543 -4.37559,10.50798 -4.55978,11.35868 -2.5941,11.98265 0.89537,0.28423 9.44358,-1.82007 11.31207,-2.78456 0.45125,-0.23242 0.94976,-1.33929 1.1363,-2.52152 0.48678,-3.08533 2.31214,-6.04713 3.72655,-6.04713 0.63043,0 1.23849,0.27705 1.35144,0.61568 0.11738,0.35231 -0.2061,0.61571 -0.75648,0.61571 -0.69927,0 -1.03763,0.4365 -1.24057,1.60078 -0.15341,0.88007 -0.43167,2.32062 -0.6185,3.20105 -0.3349,1.57886 -0.31866,1.5965 1.19955,1.29265 1.22806,-0.24557 1.53906,-0.14292 1.53906,0.50817 0,0.44859 -0.3879,0.93546 -0.86184,1.08212 z m -10.35355,-92.52075 c -0.86533,1.12348 -2.59306,1.88788 -10.94696,4.84246 -5.11969,1.81094 -6.89542,2.06487 -6.89542,0.98755 0,-0.68224 1.67499,-1.4434 6.64879,-3.02154 1.35444,-0.42959 3.5707,-1.30039 4.92511,-1.93498 1.35438,-0.63436 2.85538,-1.27892 3.33552,-1.43211 0.48027,-0.15317 1.01738,-0.65448 1.19371,-1.1139 0.41122,-1.07181 -2.33868,-3.43869 -4.88096,-4.20116 -1.00629,-0.30187 -2.2996,-1.04935 -2.87423,-1.66086 -1.27587,-1.35823 -0.83952,-2.45582 1.65587,-4.16574 1.98571,-1.36064 5.01746,-5.60026 4.54792,-6.35992 -0.4295,-0.69503 -6.44723,-0.68417 -7.75154,0.0143 -0.75761,0.40541 -1.10808,0.39317 -1.38081,-0.0481 -0.38849,-0.6285 -0.43727,-0.58923 -2.44809,1.96727 -0.92184,1.17192 -0.96918,1.18153 -0.98479,0.19938 -0.0227,-1.38415 1.32593,-2.51809 4.36619,-3.67334 4.51498,-1.71552 9.61117,-1.04962 10.20954,1.33414 0.39485,1.57357 -1.65362,4.8902 -4.45465,7.21242 -1.24157,1.02928 -2.25743,2.05752 -2.25743,2.28599 0,0.22805 0.60192,0.56568 1.33787,0.75034 2.18661,0.54885 6.42892,3.31681 6.99808,4.56617 0.71451,1.56778 0.65617,2.15266 -0.34372,3.4519 z m -30.097,98.1601 c -1.90481,2.938 -8.21861,9.08659 -8.63663,8.41058 -0.49692,-0.80394 0.88122,-3.07414 2.99225,-4.92936 2.20406,-1.93732 4.59641,-5.35355 4.59951,-6.56864 0.01,-1.12698 -1.48448,-1.86276 -3.78246,-1.87093 -2.54555,-0.0112 -4.09558,-0.47256 -4.09558,-1.22455 0,-0.90037 1.29853,-1.10097 4.86536,-0.75168 2.61068,0.25556 3.33876,0.53691 4.30947,1.6652 1.51258,1.75859 1.47187,2.61069 -0.25192,5.26938 z m -2.53275,-102.14334 c -0.37561,1.73266 -1.07876,2.71542 -5.09848,7.1262 -1.52285,1.67146 -2.76918,3.45634 -2.76918,3.96629 0,1.0455 -1.09939,1.63919 -2.23128,1.20492 -1.12108,-0.4305 0.75845,-3.83935 3.80732,-6.90427 2.54898,-2.56244 4.57886,-5.90744 4.07731,-6.71884 -0.1614,-0.26157 -2.66336,-0.47902 -5.55929,-0.48316 -5.25882,-0.0105 -6.92259,-0.38225 -6.28426,-1.41495 0.41746,-0.67596 11.00341,-0.75293 12.73976,-0.0931 1.46287,0.55626 1.75642,1.29501 1.3181,3.31657 z m -7.99072,189.00099 c -1.90645,0.53636 -6.82505,1.02359 -7.14116,0.70755 -0.20379,-0.20401 -1.3365,0.0618 -2.51702,0.5902 -1.18043,0.52837 -2.50988,0.96225 -2.95448,0.96379 -0.4445,0.003 -1.368,0.29536 -2.05228,0.65245 -0.68424,0.35719 -1.51542,0.55897 -1.84671,0.44847 -0.98775,-0.3289 -0.68485,-1.58249 0.50519,-2.09098 1.53759,-0.65732 11.13245,-2.95283 12.34083,-2.95283 0.78805,0 0.3965,-0.63217 -1.92018,-3.10021 -7.04882,-7.50988 -8.29238,-9.21183 -7.21647,-9.87669 0.5991,-0.37055 3.07527,0.24197 3.07527,0.76043 0,0.64995 5.31039,7.04808 8.07892,9.73332 2.21544,2.14899 2.87643,3.81924 1.64809,4.1645 z m -0.01,-84.52167 c -0.34005,0.2821 -1.28199,0.67031 -2.09307,0.86222 -0.8111,0.19215 -2.20663,0.7893 -3.10132,1.32707 -1.70588,1.0257 -2.38018,0.91402 -1.90827,-0.31573 0.47571,-1.23974 2.45461,-2.21889 5.14712,-2.5468 2.6608,-0.32413 3.01193,-0.20339 1.95554,0.67324 z m -5.98205,-98.95602 c -1.44061,0.59688 -3.13179,1.63124 -3.75817,2.29794 -1.02996,1.09642 -2.4449,1.63676 -2.4449,0.93379 0,-1.60259 2.61278,-3.53043 5.99373,-4.42219 3.2674,-0.86189 3.39596,-0.13055 0.20934,1.19046 z m -8.51345,180.31884 c -0.45944,0 -1.63417,-0.55377 -2.61041,-1.22964 -1.71916,-1.19198 -11.3091,-5.17288 -12.45993,-5.17288 -0.31271,0 -2.01465,-0.5332 -3.78219,-1.18457 -1.76735,-0.6515 -6.53784,-2.3334 -10.60091,-3.73722 -8.33844,-2.88132 -17.09152,-6.48339 -22.0754,-9.08478 -1.848,-0.9644 -3.64206,-1.75358 -3.98655,-1.75358 -0.34484,0 -1.02373,-0.43852 -1.50897,-0.97473 -0.80441,-0.88892 -0.81116,-1.00197 -0.0754,-1.28438 0.83353,-0.31981 4.78185,1.03011 5.25604,1.79722 0.3176,0.51411 15.6599,6.83447 21.65119,8.91956 2.30239,0.80135 7.3997,2.53247 11.32747,3.84678 8.50856,2.84749 14.71607,5.10382 16.31808,5.9315 2.79368,1.4431 4.40438,3.92672 2.54661,3.92672 z m -5.93609,-74.55551 c -5.7517,1.37421 -8.55165,2.18416 -9.41519,2.72347 -1.58309,0.98865 -1.93571,-0.0312 -0.45232,-1.30802 1.31943,-1.13578 4.31503,-1.93279 8.88239,-2.36372 2.52168,-0.23789 3.20325,0.41816 0.98512,0.94827 z m -2.21612,-99.07451 c -0.33855,0.10606 -1.8345,0.56719 -3.32435,1.02486 -1.48984,0.45792 -3.64906,1.28923 -4.7985,1.84774 -2.35639,1.14482 -3.19529,0.85272 -1.84267,-0.64192 0.95819,-1.05869 4.36645,-2.18807 8.24169,-2.73082 2.12194,-0.29707 3.23767,0.0276 1.72383,0.50014 z m -21.79328,9.32076 c -0.54172,0.22207 -2.97954,1.13915 -5.41749,2.03812 -6.0007,2.21265 -8.86104,3.52922 -9.59895,4.41829 -0.33981,0.40955 -0.92314,0.74448 -1.2964,0.74448 -0.37301,0 -0.67842,0.22173 -0.67842,0.49251 0,0.27094 -0.33233,0.49247 -0.7387,0.49247 -0.40626,0 -0.7388,-0.32738 -0.7388,-0.72731 0,-0.90147 2.23449,-2.42668 2.92768,-1.99825 0.29105,0.17984 0.39592,0.0212 0.24512,-0.37211 -0.31414,-0.81848 4.90233,-3.12563 10.76235,-4.76036 3.71804,-1.03698 6.80925,-1.26057 4.53361,-0.32784 z m -4.92497,102.32329 c -0.27086,0.17301 -1.91706,0.67689 -3.65818,1.11964 -1.74112,0.44297 -4.51138,1.44583 -6.15624,2.2284 -1.64475,0.78263 -3.37939,1.40491 -3.85451,1.38314 -0.81834,-0.0372 -0.8191,-0.0894 -0.0149,-0.97753 1.20764,-1.33444 5.41217,-3.15527 8.84501,-3.83074 2.90994,-0.57253 5.78506,-0.52668 4.83921,0.0771 z m -21.6062,-85.84366 c -0.30539,1.71738 -0.73326,2.94303 -0.9508,2.72378 -0.2175,-0.21925 -0.25887,-0.0426 -0.0917,0.39335 0.59734,1.55676 -0.82948,6.91363 -2.97426,11.16635 -3.16142,6.26885 -6.79683,9.61923 -13.03771,12.01601 -7.99839,3.07186 -8.93901,3.29059 -14.59191,3.39313 -4.99722,0.0909 -6.28207,-0.37973 -9.1457,-3.34746 -3.81186,-3.95086 -5.31587,-10.09212 -5.3188,-21.71986 -0.003,-6.23621 1.08697,-10.32915 4.07287,-15.31608 2.4716,-4.1279 7.77361,-9.53053 11.08553,-11.29566 5.35675,-2.85532 13.38332,-3.99667 15.06168,-2.14209 0.45313,0.50065 1.4661,0.92864 2.25124,0.9511 2.11451,0.0602 4.26158,1.3509 6.9989,4.208 3.37743,3.52527 5.92359,7.49134 6.6792,10.40388 0.73541,2.83599 0.72906,4.24998 -0.0386,8.56555 z m -2.06925,4.78652 c -0.74863,0.92292 -0.76589,0.91321 -0.5007,-0.27508 0.69996,-3.13297 1.35904,-9.6391 1.12362,-11.08974 -1.01454,-6.2522 -9.53847,-15.69473 -12.65986,-14.02428 -0.53794,0.28798 -0.97808,0.96674 -0.97808,1.50843 0,0.84355 -0.14634,0.90667 -1.01955,0.43944 -0.75763,-0.40541 -0.98578,-0.94798 -0.8878,-2.11047 0.0723,-0.86091 -0.0918,-1.96082 -0.36444,-2.44487 -0.4659,-0.82546 -0.67443,-0.83331 -3.40196,-0.12304 -1.59822,0.41626 -3.30177,0.75678 -3.78595,0.75678 -1.71396,0 -7.55735,3.17018 -9.92905,5.38659 -3.65702,3.41817 -6.69125,8.01386 -8.25397,12.50292 -1.26012,3.62012 -1.40193,4.67366 -1.40823,10.42935 -0.0125,10.70924 1.71091,16.68373 5.8199,20.19268 1.62078,1.38484 2.02764,1.48791 6.4874,1.6442 4.41119,0.15461 5.16168,0.0328 10.29172,-1.67153 8.75994,-2.91001 12.47528,-5.78277 15.80378,-12.21974 0.85906,-1.66123 1.83164,-3.24218 2.16108,-3.51305 0.8031,-0.66001 1.9515,-3.7022 2.22003,-5.88101 0.0321,-0.25474 -0.29171,-0.0337 -0.71794,0.49242 z m -14.36915,6.55186 c -5.33615,1.47375 -12.84073,3.02305 -14.64285,3.02305 -2.30405,0 -3.85477,-1.29302 -3.46221,-2.88749 0.35384,-1.4392 5.44992,-10.21668 6.20109,-10.6806 0.26148,-0.16156 1.12798,-1.58731 1.92622,-3.16822 0.79809,-1.58111 2.01197,-3.70126 2.69768,-4.71167 1.06379,-1.56744 1.67118,-3.66967 1.06061,-3.66967 -0.10243,0 -0.98494,0.33378 -1.9611,0.74172 -0.97645,0.40795 -1.94537,0.71412 -2.15346,0.68042 -1.49728,-0.24256 -1.73029,0.11909 -1.48408,2.30387 l 0.25355,2.24896 -1.08303,-1.01737 c -0.59568,-0.5597 -1.21461,-1.01754 -1.37485,-1.01754 -0.16139,0 -0.92293,0.99683 -1.69257,2.21533 -2.15817,3.41588 -2.83384,2.93608 -1.20762,-0.8576 1.01773,-2.37386 5.00171,-6.2147 8.13971,-7.84623 1.81737,-0.94491 2.02521,-0.95722 3.58732,-0.21227 0.91218,0.43485 2.09389,0.79074 2.62644,0.79074 0.5994,0 0.9683,0.33331 0.9683,0.87504 0,0.75258 -2.20551,4.08994 -4.74304,7.17707 -0.41171,0.50089 -1.31985,1.9338 -2.01778,3.18404 -0.69813,1.25031 -2.57481,4.27515 -4.1705,6.72199 -2.85772,4.38196 -3.77039,6.41195 -3.15798,7.02443 0.43386,0.43376 7.92912,-1.03364 13.95651,-2.73264 2.77099,-0.78068 5.15366,-1.30501 5.29428,-1.16412 0.14084,0.14073 0.2561,0.63135 0.2561,1.09051 0,0.6217 -0.97259,1.10297 -3.81674,1.88825 z m 12.68177,95.12075 c -0.26257,0.4065 -0.48086,1.21217 -0.48495,1.79057 -0.0113,1.4161 -3.52408,4.74167 -6.92624,6.55517 -4.86692,2.59401 -17.94389,7.11662 -26.57137,9.1896 -10.98779,2.64018 -17.07708,3.19507 -24.02862,2.18969 -4.22188,-0.61046 -7.25816,-2.18277 -10.29947,-5.3333 -3.07946,-3.19042 -4.55371,-6.0616 -4.91655,-9.578 l -0.27016,-2.6181 -4.24046,0.0128 c -3.65009,0.0114 -4.26432,-0.10978 -4.41144,-0.85176 -0.15011,-0.75726 0.26603,-0.86256 3.43585,-0.86838 5.03915,-0.0113 5.82312,-0.28358 5.82312,-2.03649 0,-0.78986 0.32593,-2.21667 0.72481,-3.17069 0.71974,-1.72287 0.70951,-1.75607 -1.48953,-4.77797 -2.41374,-3.31731 -3.57082,-6.50586 -2.80444,-7.72783 0.74451,-1.18704 2.88557,-1.767 3.78047,-1.02438 0.92653,0.76898 0.56757,1.50651 -0.73295,1.50651 -1.56371,0 -1.15699,2.02133 1.01738,5.0579 l 1.97361,2.75574 3.56706,-3.54669 c 5.25777,-5.22737 11.5096,-8.03305 19.95216,-8.95397 2.34761,-0.25615 3.2115,-0.56878 3.60528,-1.30481 0.28493,-0.5323 1.55514,-1.44381 2.82275,-2.02587 2.01335,-0.92406 3.20791,-1.06013 9.44599,-1.07565 8.22313,-0.0209 11.7163,0.79791 17.19372,4.02938 5.33956,3.15001 12.64794,11.27721 11.6269,12.92934 -0.17249,0.27876 -0.0786,0.50715 0.20811,0.50715 0.28673,0 0.52148,0.39073 0.52148,0.86883 0,0.47789 0.44336,2.08148 0.9849,3.56373 1.13511,3.10526 1.11838,2.97161 0.49259,3.94008 z m -2.01756,-3.84474 c -2.18405,-9.34847 -10.93337,-17.10106 -22.31571,-19.77336 -1.93234,-0.4537 -2.50022,-0.43837 -2.83189,0.075 -0.30144,0.46669 -0.51588,0.48931 -0.78435,0.0831 -0.6332,-0.95864 -9.86984,-0.5275 -12.06625,0.56319 -1.01579,0.50444 -1.8469,1.0682 -1.8469,1.25311 0,0.18457 1.9255,0.58402 4.27906,0.88776 4.01004,0.51752 5.66219,1.12933 4.95639,1.83503 -0.16635,0.1664 -1.43662,0.0599 -2.82314,-0.23802 -3.47733,-0.74568 -7.39548,-0.70598 -7.40483,0.0753 -0.01,0.43763 -0.13401,0.41589 -0.44513,-0.0758 -0.59528,-0.94088 -6.06706,-0.45657 -10.52119,0.93097 -5.69782,1.77473 -11.75864,6.00307 -13.89858,9.69616 l -0.90565,1.56259 1.55431,1.77018 c 2.91932,3.32518 2.59419,5.22114 -1.07541,6.26891 -2.99156,0.85416 -3.40631,1.31413 -3.11909,3.45786 0.55122,4.10766 4.72562,9.68891 8.80264,11.76896 2.92583,1.49263 10.67318,2.21522 16.3157,1.52187 4.71476,-0.57939 13.48592,-2.43776 17.5825,-3.72526 10.05696,-3.16078 12.52056,-3.99023 15.75993,-5.30729 6.22457,-2.53021 9.392,-4.78111 10.62974,-7.55365 0.81726,-1.83148 0.82879,-2.20459 0.15789,-5.07645 z m -23.10128,7.62376 c -0.45842,1.13746 -8.57803,5.3871 -10.83374,5.67034 -2.46119,0.30916 -1.64464,-0.86939 1.76943,-2.55391 4.75548,-2.34697 7.15867,-3.93191 6.81175,-4.49346 -0.15948,-0.25808 -1.51004,-1.15764 -3.00114,-1.99937 -1.49123,-0.84145 -2.96251,-2.0816 -3.2697,-2.75573 -0.50334,-1.10448 -0.39042,-1.36604 1.14289,-2.64609 0.95346,-0.79586 2.02306,-1.29684 2.43339,-1.13941 0.40261,0.15448 0.58231,0.13102 0.39893,-0.0521 -0.18313,-0.183 0.21148,-1.04675 0.87701,-1.91936 0.66544,-0.87249 1.20991,-1.74901 1.20991,-1.94769 0,-0.19878 -1.91886,-0.2887 -4.26438,-0.19979 -3.56434,0.13505 -4.30139,0.30312 -4.48989,1.02355 -0.2836,1.0832 -3.55835,1.24868 -3.55835,0.17977 0,-1.21251 2.28325,-2.22548 6.48337,-2.87749 4.61231,-0.71581 7.21783,-0.50596 7.93638,0.63951 0.77858,1.24127 -0.85047,3.98793 -3.61593,6.09675 -1.35801,1.03561 -2.39344,2.12957 -2.30142,2.4312 0.0922,0.30157 1.08138,0.99333 2.19903,1.53709 1.96921,0.9581 4.59855,3.0759 4.53499,3.6528 -0.017,0.15597 -0.22505,0.765 -0.46253,1.35359 z m -43.54316,-7.18675 c -1.18249,-1.11113 -1.192,-1.11188 -1.72371,-0.11829 -1.29498,2.41969 -0.28199,3.72391 1.96031,2.52393 1.24001,-0.6636 1.2015,-1.05463 -0.2366,-2.40564 z m 22.59887,-98.83857 c -0.38414,0.74047 -1.94822,2.71732 -3.47602,4.39309 -3.08774,3.38705 -5.1284,6.34765 -5.1284,7.44045 0,1.07199 -0.94539,1.45368 -1.30161,0.52551 -0.57718,-1.5054 0.87008,-4.79603 3.22587,-7.33245 2.56731,-2.76334 4.47844,-5.36125 4.47844,-6.08702 0,-0.44694 -5.35939,-1.21765 -8.74204,-1.25727 -2.51717,-0.0295 -2.05237,-1.3154 0.49278,-1.36259 4.04983,-0.0755 8.50465,0.0872 9.35773,0.34131 1.42159,0.42315 1.87984,1.82279 1.09325,3.33897 z m -11.87567,5.7653 c -5.48118,3.06902 -8.51583,3.08983 -3.74072,0.0266 3.3808,-2.16937 5.91408,-3.14232 6.83727,-2.62586 0.59985,0.33599 -0.0954,0.91979 -3.09655,2.59988 z m -9.41065,3.5682 c -0.60074,0.37081 -9.06669,3.31039 -11.20451,3.89035 -1.08342,0.29399 -2.10851,0.74323 -2.27767,0.9985 -0.17797,0.268 -0.47088,0.20022 -0.69409,-0.16094 -0.60408,-0.97736 1.30868,-2.19717 5.63218,-3.59172 5.15497,-1.66279 10.56194,-2.38187 8.54409,-1.13619 z m -10.88007,87.00302 c -0.22798,0 -2.29205,-1.85229 -4.58678,-4.11645 -3.81961,-3.76826 -4.75308,-4.39534 -11.03616,-7.41414 -9.41166,-4.52193 -9.58171,-4.62182 -13.06474,-7.67998 -1.69479,-1.48817 -5.75798,-4.49125 -9.02923,-6.6737 -10.26841,-6.84995 -10.68806,-7.17052 -10.51133,-8.02757 0.2008,-0.97348 1.65713,-0.81217 3.13994,0.34788 4.05884,3.17447 6.88738,5.13231 10.47032,7.24623 2.26696,1.33714 5.36946,3.52186 6.89514,4.8547 3.71432,3.24536 7.27084,5.47019 11.48642,7.1858 6.91067,2.81237 13.52805,7.46862 15.74084,11.07598 0.94827,1.54583 1.20444,3.20125 0.49558,3.20125 z M 284.1986,600.31431 c -1.19768,0.30406 -4.83725,1.45497 -8.08784,2.5575 -3.25051,1.10233 -6.50818,2.01294 -7.23923,2.02345 -0.73108,0.0114 -1.4445,0.31868 -1.58503,0.68591 -0.39541,1.02969 -2.365,0.8521 -2.16361,-0.19551 0.10267,-0.53227 1.19963,-1.24046 2.86828,-1.85144 1.48609,-0.54435 3.14543,-1.23393 3.68717,-1.53239 0.89789,-0.49462 8.18805,-2.23892 11.84295,-2.8332 2.58542,-0.42047 3.14129,0.52 0.67731,1.14568 z m -26.14368,15.04444 c -1.49981,7.49573 -7.17231,13.22303 -18.28948,18.4673 -8.56065,4.03798 -15.09733,6.04019 -20.54223,6.29238 -4.18974,0.19383 -5.01237,0.0826 -7.81703,-1.05697 -4.48368,-1.82192 -7.09386,-4.14971 -9.00434,-8.03057 -2.20931,-4.48766 -2.46754,-8.41195 -0.79452,-12.06654 2.08408,-4.55209 8.28872,-9.7369 15.72743,-13.14177 5.73657,-2.62591 9.00797,-3.2224 14.12286,-2.57471 l 4.10435,0.51984 1.5595,-1.64111 c 3.9386,-4.14494 13.37051,-4.24815 17.54465,-0.19233 3.1787,3.08895 4.44966,8.12321 3.38881,13.42448 z m -2.3799,-9.10564 c -0.53969,-1.05873 -1.52399,-2.46701 -2.18647,-3.12939 -0.66227,-0.66242 -1.08495,-1.32363 -0.93913,-1.46947 0.14582,-0.14577 -0.25539,-0.14994 -0.89172,-0.0115 -0.81443,0.17992 -0.96284,0.11778 -0.5015,-0.21016 1.14485,-0.81359 -2.24905,-1.146 -5.77493,-0.56578 -6.60002,1.08621 -9.49355,3.0608 -7.99723,5.45713 0.76391,1.22274 0.59475,1.44528 -0.81794,1.07594 -0.59762,-0.1567 -1.08648,-0.59635 -1.08648,-0.97783 0,-0.38139 -0.53266,-0.89591 -1.18348,-1.14337 -0.65089,-0.24752 -1.3038,-0.64415 -1.45019,-0.88156 -0.49629,-0.80315 -7.4225,0.32428 -11.89189,1.93554 -5.09793,1.83775 -12.12128,6.29966 -14.74923,9.36977 -2.29645,2.68301 -3.72306,5.7018 -3.72306,7.87949 0,3.43039 1.52725,6.87876 4.26699,9.63457 3.74048,3.7625 6.22577,4.75182 11.98575,4.77136 4.2664,0.0138 5.22126,-0.17257 10.83499,-2.1206 15.36621,-5.33265 24.2403,-11.92073 26.62747,-19.76856 0.78253,-2.57211 0.50327,-7.83796 -0.52195,-9.84753 z m -7.88297,-3.94571 c -0.54186,0 -0.98494,-0.22168 -0.98494,-0.49247 0,-0.27096 0.44308,-0.49245 0.98494,-0.49245 0.54199,0 0.98509,0.22149 0.98509,0.49245 0,0.27079 -0.4431,0.49247 -0.98509,0.49247 z m -8.46438,25.79683 c -0.35564,0.0988 -1.88535,0.54056 -3.39891,0.98147 -1.51395,0.4411 -3.34751,0.80178 -4.07532,0.80178 -0.97335,0 -1.45263,0.34009 -1.81237,1.2865 -0.399,1.04956 -0.69158,1.21914 -1.58852,0.92166 -0.60458,-0.20068 -2.15583,-0.4687 -3.44713,-0.59564 -1.68173,-0.16562 -2.4954,-0.50765 -2.86965,-1.20621 -0.34025,-0.63569 -0.80865,-0.86591 -1.34596,-0.66147 -0.65537,0.24942 -0.69947,0.18788 -0.2158,-0.29929 0.33453,-0.33706 1.92802,-0.70835 3.54101,-0.82485 l 2.93261,-0.21217 0.15292,-5.48366 c 0.0838,-3.01591 0.10747,-5.56573 0.0526,-5.66566 -0.0563,-0.10072 -0.94173,0.46497 -1.96998,1.25708 -2.56663,1.97675 -7.94322,5.08111 -8.79997,5.08111 -2.21766,0 0.89824,-2.82663 5.20793,-4.72459 1.97839,-0.87129 6.86543,-5.60163 7.91715,-7.66322 0.53166,-1.04202 1.29451,-1.8946 1.69534,-1.8946 0.96627,0 0.91931,0.72844 -0.24378,3.78873 -1.23476,3.24852 -2.24014,10.69074 -1.77702,13.15724 l 0.35429,1.88966 2.30578,-0.30738 c 6.48526,-0.86464 7.35244,-0.90574 7.68707,-0.36412 0.18973,0.30691 0.054,0.6388 -0.3019,0.73763 z m -51.40934,11.14114 c -3.90877,4.90446 -4.64391,6.19417 -4.64391,8.14275 0,0.84976 -0.20847,1.10364 -0.73884,0.90011 -1.03233,-0.39607 -0.95387,-3.69091 0.1231,-5.16554 0.47397,-0.64898 1.08335,-1.54579 1.3545,-1.99259 0.27074,-0.44685 1.54494,-2.18398 2.83189,-3.85997 3.34962,-4.36413 3.23981,-4.63246 -1.72396,-4.20431 -2.23468,0.19266 -4.13687,0.55363 -4.22723,0.80232 -0.25412,0.69893 -2.84885,0.53394 -3.47538,-0.22148 -0.42023,-0.50635 -0.40463,-0.79657 0.0628,-1.1706 1.40404,-1.12314 11.33678,-2.09099 13.38639,-1.3045 0.4818,0.18479 0.77914,0.88967 0.77914,1.84707 0,1.18767 -0.86845,2.63799 -3.72858,6.22674 z m -3.28988,-1.61481 c -1.06631,0.82452 -16.25432,7.16628 -30.41181,12.69814 -3.92775,1.53487 -8.02779,3.29525 -9.11128,3.91217 -1.08352,0.61673 -3.41055,1.59479 -5.17134,2.17323 l -3.2012,1.05159 0.0911,3.12834 c 0.10773,3.71624 -0.49128,5.0741 -3.68915,8.36183 -3.1892,3.27891 -8.93514,7.01016 -17.09998,11.10432 -9.62854,4.82805 -16.386857,7.03487 -22.481163,7.33952 -4.521693,0.22656 -4.922944,0.16341 -7.880075,-1.24126 -4.961351,-2.35644 -6.729175,-4.68426 -7.749713,-10.20486 -1.790369,-9.68503 0.911742,-18.45698 7.826915,-25.40887 4.681045,-4.70603 8.168949,-6.52177 13.050242,-6.79485 2.938664,-0.16438 3.695194,-0.40208 5.046994,-1.58598 0.87436,-0.76587 2.42592,-1.52323 3.44747,-1.6831 1.02161,-0.15978 2.6588,-0.50319 3.63839,-0.76316 3.82046,-1.01371 8.8041,-0.23219 13.46896,2.11195 3.97302,1.99668 8.86055,6.77012 10.71691,10.46692 0.81611,1.62519 1.5541,3.03302 1.64009,3.12833 0.0853,0.0953 1.11211,-0.27154 2.28091,-0.8155 4.2202,-1.96484 15.0779,-6.50607 22.0711,-9.23164 7.4337,-2.89712 15.50062,-6.25612 20.25966,-8.43614 2.54119,-1.16388 3.87306,-1.22931 3.87306,-0.18973 0,0.22139 -0.27698,0.61697 -0.61583,0.87875 z m -51.02066,15.73083 c -0.85392,-1.7343 -2.67026,-4.23247 -4.10238,-5.64223 -3.12784,-3.07913 -7.86018,-5.73279 -9.49258,-5.32306 -0.71048,0.17838 -1.3742,0.011 -1.75283,-0.44693 -0.74138,-0.89336 -2.2704,-0.96144 -2.66374,-0.11834 -0.21914,0.46953 -0.3534,0.47572 -0.5658,0.0272 -0.48419,-1.02398 -8.83383,0.12519 -10.4334,1.4364 -0.95119,0.77974 -0.76485,1.10396 1.30252,2.26598 1.0551,0.59319 2.04542,1.40942 2.20085,1.81437 0.36941,0.96272 0.2907,0.9462 -2.19381,-0.46524 -1.16355,-0.66086 -2.29605,-1.08998 -2.5166,-0.95373 -0.22066,0.13629 -0.7244,-0.0757 -1.11946,-0.47016 -0.4699,-0.46996 -1.3628,-0.64434 -2.581905,-0.5044 -2.847674,0.3263 -6.542317,1.21957 -6.542317,1.58114 0,0.17778 -0.646711,0.60935 -1.437148,0.95947 -2.215449,0.98096 -8.003053,7.40617 -9.555927,10.60931 -1.976536,4.07678 -2.935453,9.11188 -2.641053,13.86638 0.310529,5.01502 0.993392,7.2257 2.90472,9.40256 5.692522,6.4835 15.849178,5.50209 33.63074,-3.24959 9.11536,-4.48611 15.95634,-9.47532 18.5673,-13.54057 1.43614,-2.23593 0.99293,-7.18457 -1.00718,-11.24759 z m -17.20143,12.01455 c -2.24081,3.20758 -6.02065,5.95064 -10.09562,7.32678 -3.75426,1.26794 -5.30553,1.278 -7.712095,0.05 -1.99682,-1.01869 -2.989769,-2.85381 -2.989769,-5.52502 0,-2.02423 2.102351,-5.90425 4.581184,-8.45494 1.16826,-1.20192 2.44381,-2.66136 2.83456,-3.24285 1.49353,-2.2228 8.33883,-3.28728 11.29833,-1.75677 2.46638,1.27552 3.94109,3.7033 3.94109,6.48859 0,2.04116 -0.31322,2.90337 -1.85768,5.11401 z m -0.37037,-7.93104 c -0.41285,-0.79819 -1.51185,-1.76934 -2.44247,-2.15825 -3.16454,-1.32211 -10.52509,0.24135 -9.11753,1.93701 0.37651,0.45403 0.23943,0.68738 -0.52078,0.88606 -0.56748,0.14848 -1.15136,0.72721 -1.29761,1.28594 -0.14603,0.5588 -0.48664,0.87949 -0.75673,0.71251 -0.64879,-0.40098 -2.799871,2.25977 -2.842414,3.51577 -0.01835,0.54179 -0.358773,1.41536 -0.756485,1.94123 -2.016981,2.66703 0.383586,6.18501 4.219899,6.18501 2.28472,0 7.39956,-2.28803 9.89892,-4.42785 2.38151,-2.03915 4.36471,-5.35253 4.36529,-7.29338 1.8e-4,-0.62297 -0.33737,-1.78581 -0.75009,-2.58405 z m -9.53393,2.4854 c -0.27088,0 -0.62946,-0.22168 -0.79687,-0.49257 -0.16742,-0.27083 -0.0828,-0.49253 0.18814,-0.49253 0.27086,0 0.62941,0.2217 0.79684,0.49253 0.16733,0.27089 0.0832,0.49257 -0.18811,0.49257 z"
       id="path74" />
  </g>
</svg>
